<?xml version="1.0" encoding="utf-8"?>
<svg viewBox="68.1624 83.9376 254.6325 202.91" width="254.6325" height="202.91" xmlns="http://www.w3.org/2000/svg">
  <defs>
    <linearGradient id="sw-gradient" x1="0" x2="1" y1="1" y2="0">
      <stop id="stop1" stop-color="rgba(232, 220, 134, 1)" offset="0"/>
      <stop id="stop2" stop-color="rgba(232, 220, 134, 1)" offset="1"/>
    </linearGradient>
    <linearGradient id="gradient-1" x1="0" x2="1" y1="1" y2="0">
      <stop id="stop-1" stop-color="rgba(145, 89, 126, 1)" offset="0"/>
      <stop id="stop-2" stop-color="rgba(145, 89, 126, 1)" offset="1"/>
    </linearGradient>
    <linearGradient id="gradient-2" x1="0" x2="1" y1="1" y2="0">
      <stop id="stop-3" stop-color="rgba(254, 157, 151, 1)" offset="0"/>
      <stop id="stop-4" stop-color="rgba(254, 157, 151, 1)" offset="1"/>
    </linearGradient>
  </defs>
  <g>
    <path fill="url(#sw-gradient)" d="M 313.741 119.214 C 324.197 120.361 323.921 144.156 321.17 162.216 C 318.143 180.277 312.365 192.891 304.937 200.918 C 297.233 208.946 287.877 212.671 280.173 220.699 C 272.194 229.013 266.141 241.914 255.686 247.934 C 245.23 253.954 230.924 252.807 219.092 245.928 C 206.986 239.047 197.906 226.146 197.631 213.246 C 197.081 200.345 205.61 187.158 208.361 170.244 C 211.113 153.043 208.361 132.402 216.065 130.394 C 223.494 128.102 241.654 144.729 261.464 142.436 C 281.549 139.855 303.01 118.068 313.741 119.214 Z" width="100%" height="100%" stroke-width="0" style="transition: all 0.3s ease 0s;"/>
    <path fill="url(#gradient-1)" d="M 222.435 134.109 C 239.246 148.825 261.268 162.639 265.53 181.858 C 269.556 201.077 255.584 225.704 239.01 245.523 C 222.435 265.344 203.017 280.359 180.049 285.163 C 156.844 289.969 129.851 284.863 122.273 265.044 C 114.696 245.223 126.772 210.988 130.797 181.858 C 134.823 152.728 131.035 128.704 138.611 113.988 C 145.952 99.275 164.896 93.568 179.813 98.674 C 194.967 103.478 205.859 119.094 222.435 134.109 Z" width="100%" height="100%" stroke-width="0" style="transition: all 0.3s ease 0s;"/>
    <path fill="url(#gradient-2)" d="M 205.786 113.624 C 220.007 127.52 232.121 139.339 230.277 150.124 C 228.434 160.908 212.896 170.861 204.206 185.38 C 195.515 199.69 193.934 218.355 181.03 228.931 C 168.126 239.509 144.161 241.997 125.463 235.566 C 106.765 229.139 93.071 213.791 82.537 198.03 C 72.002 182.062 64.365 165.471 70.159 152.613 C 75.689 139.755 94.914 130.838 111.768 117.149 C 128.623 103.255 143.107 85.005 158.909 83.968 C 174.446 83.137 191.301 99.522 205.786 113.624 Z" width="100%" height="100%" stroke-width="0" style="transition: all 0.3s ease 0s;"/>
  </g>
</svg>